<?xml version="1.0" encoding="UTF-8"?>
<svg id="Layer_1" xmlns="http://www.w3.org/2000/svg" version="1.1" viewBox="0 0 184.53 39.67">
  <!-- Generator: Adobe Illustrator 30.1.0, SVG Export Plug-In . SVG Version: 2.1.1 Build 136)  -->
  <defs>
    <style>
      .st0 {
        fill: #1a1a1a;
        fill-rule: evenodd;
      }
    </style>
  </defs>
  <path class="st0" d="M180.2,39.15v-18.54c0-4.49-1.21-7.08-5.37-7.08-5.14,0-8.78,5.07-8.78,11.86v13.76h-4.33V10.53h4.27c0,2.12-.16,4.24-.46,6.33l.12.06c1.57-4.29,5.71-7.1,10.28-6.96,6.58,0,8.6,4.14,8.6,9.21v19.98h-4.33ZM153.24,14.28c-6.35-1.04-9.35,3.8-9.35,13.42v11.46h-4.33V10.54h4.27c-.04,2.41-.25,4.82-.64,7.2l.06.06c1.16-4.2,4.16-8.46,10.16-7.77l-.17,4.26ZM120.62,13.3c-4.04,0-6.93,2.94-7.62,7.43h14.55c.12-4.43-2.54-7.43-6.93-7.43ZM131.93,23.95h-19.17c-.29,8.58,3.12,12.15,9.53,12.15,2.87,0,5.71-.62,8.31-1.84l.4,3.69c-3.01,1.18-6.23,1.77-9.47,1.73-8.66,0-13.28-4.67-13.28-14.69,0-8.58,4.62-14.97,12.59-14.97s11.2,5.47,11.2,11.8c.01.71-.03,1.43-.12,2.13h0ZM87.07,20.72c-.69,0-2.83,0-3.75.06v14.63c1.76.25,3.53.37,5.31.34,6.87,0,9.88-3.4,9.88-7.95,0-5.47-5.02-7.08-11.43-7.08ZM88.92,3.68c-1.9,0-3.93.06-5.6.12v13.53c1.21.06,2.19.06,3.7.06,6.93,0,10.57-2.7,10.57-7.31,0-3.69-1.79-6.39-8.66-6.39ZM88.28,39.32c-2.37,0-6.06-.12-9.41-.17V.29c2.66-.06,6.18-.17,10.86-.17,8.49,0,12.47,3.57,12.47,9.21-.09,4.37-3.09,8.14-7.33,9.21v.11c5.77.86,8.26,4.89,8.26,9.04s-2.54,11.63-14.84,11.63ZM57.11,39.15v-16.18h-14.26v16.18h-9.01V.29h9.01v14.91h14.26V.29h9.01v38.86h-9.01ZM10.91,7.31c-.64,0-1.27,0-1.9.06v11.4c.58.05,1.1.12,1.56.12,3.75-.06,6.58-2.19,6.58-5.99,0-3.28-1.79-5.59-6.24-5.59ZM11.09,26.31c-.46,0-1.27,0-2.08-.06v12.9H0V.29c3.35-.17,7.04-.29,11.09-.29,9.93,0,15.36,4.49,15.36,12.49,0,7.54-5.43,13.82-15.36,13.82Z"/>
</svg>